<?xml version="1.0" encoding="utf-8"?>
<!-- Generator: Adobe Illustrator 23.0.0, SVG Export Plug-In . SVG Version: 6.00 Build 0)  -->
<svg version="1.1" id="Capa_1" xmlns="http://www.w3.org/2000/svg" xmlns:xlink="http://www.w3.org/1999/xlink" x="0px" y="0px"
	 viewBox="0 0 43.6 37.9" style="enable-background:new 0 0 43.6 37.9;" xml:space="preserve">
<style type="text/css">
	.st0{fill:#FD2A5D;}
	.st1{fill:#081E43;}
	.st2{fill:#666666;}
</style>
<g>
	<path class="st0" d="M23.6,2.9c-1.2-1.1-2.8-1.7-4.5-1.6c-1.7,0.1-3.3,0.8-4.4,2.1C13.5,4.6,12.9,6.3,13,8c0.1,1.7,0.8,3.3,2.1,4.5
		l0.1,0.1l1-1.2l-0.1-0.1c-1-0.9-1.6-2.1-1.6-3.4c-0.1-1.3,0.4-2.5,1.2-3.4c0.9-0.9,2-1.5,3.3-1.6c1.2-0.1,2.5,0.4,3.4,1.2l0.1,0.1
		l1-1.2L23.6,2.9z"/>
	<path class="st1" d="M24.7,8.8l-0.1-0.1c-0.2-0.3-0.5-0.6-0.8-0.8l-0.1-0.1l-0.1,0.1l-3.8,4.3l1.1,1l2.7-3.1
		c0.5,0.8,0.8,1.8,0.7,2.8c-0.1,2.3-1.8,4.2-4.1,4.5c-1.4,0.2-2.8-0.2-3.8-1.1l-0.1-0.1l-1,1.2l0.1,0.1c1.2,1,2.6,1.6,4.2,1.6
		c0.1,0,0.2,0,0.3,0c3.5-0.2,6.2-3.1,6.1-6.6C25.9,11,25.4,9.8,24.7,8.8z"/>
	<polygon class="st1" points="29.3,17.3 33.3,12.2 29.3,7.2 31.1,5.8 36.3,12.2 31.1,18.6 	"/>
	<rect x="36" y="16.3" class="st1" width="6.9" height="2.3"/>
	<polygon class="st1" points="7.7,18.6 2.5,12.2 7.7,5.8 9.5,7.2 5.5,12.2 9.5,17.3 	"/>
	<g>
		<g>
			<path class="st1" d="M3.4,31.6c-2,0-2.6-0.9-2.6-1c-0.1-0.2,0-0.5,0.2-0.6c0.2-0.1,0.5,0,0.6,0.2c0,0,0.1,0.1,0.3,0.3
				c0.5,0.2,1.1,0.3,1.5,0.3c0.6,0,1.1-0.1,1.3-0.4C4.9,30.2,5,29.9,5,29.8c0-0.3-0.1-0.6-0.3-0.8c-0.3-0.3-0.8-0.5-1.5-0.6
				c-0.5-0.1-0.9-0.3-1.3-0.5c-0.3-0.2-0.5-0.5-0.7-0.7c-0.3-0.5-0.3-0.9-0.3-1c0-0.5,0.2-1,0.6-1.3c0.2-0.2,0.4-0.3,0.7-0.4
				c0.3-0.1,0.6-0.1,0.9-0.1c1.8,0,2.3,0.8,2.4,0.9c0.1,0.2,0,0.5-0.2,0.6c-0.2,0.1-0.5,0-0.6-0.2c0,0-0.1-0.1-0.3-0.2
				c-0.2-0.1-0.6-0.2-1.3-0.2c-0.5,0-0.8,0.2-1,0.3c-0.2,0.2-0.3,0.4-0.3,0.7v0c0,0,0,0.3,0.2,0.5c0.1,0.2,0.2,0.3,0.4,0.4
				c0.2,0.2,0.6,0.3,0.9,0.4c0.9,0.2,1.5,0.5,1.9,0.9c0.4,0.4,0.6,0.9,0.6,1.5c0,0.5-0.2,0.9-0.5,1.2C4.9,31.4,4.2,31.6,3.4,31.6z"
				/>
			<path class="st1" d="M15.7,31.6c-0.2,0-0.4-0.1-0.4-0.3l-1.9-5.2l-1.9,5.2c-0.1,0.2-0.2,0.3-0.4,0.3c-0.2,0-0.4-0.1-0.4-0.3
				l-2.3-6.4c-0.1-0.2,0-0.5,0.3-0.6c0.2-0.1,0.5,0,0.6,0.3l1.9,5.2l1.9-5.2c0.1-0.2,0.2-0.3,0.4-0.3c0.2,0,0.4,0.1,0.4,0.3l1.9,5.2
				l1.9-5.2c0.1-0.2,0.3-0.4,0.6-0.3c0.2,0.1,0.4,0.3,0.3,0.6l-2.3,6.4C16.1,31.4,15.9,31.6,15.7,31.6z"/>
			<path class="st1" d="M26.2,31.1c0,0.3-0.2,0.5-0.5,0.5h-4.4c-0.2,0-0.5-0.2-0.5-0.5v-6.3c0-0.3,0.2-0.5,0.5-0.5h4.3
				c0.3,0,0.5,0.2,0.5,0.5s-0.2,0.5-0.5,0.5h-3.8v2.2h3.4c0.3,0,0.5,0.2,0.5,0.5c0,0.3-0.2,0.5-0.5,0.5h-3.4v2.2h3.9
				C26,30.6,26.2,30.8,26.2,31.1z"/>
			<path class="st1" d="M33.9,31.1c0,0.3-0.2,0.5-0.5,0.5H29c-0.2,0-0.5-0.2-0.5-0.5v-6.3c0-0.3,0.2-0.5,0.5-0.5h4.3
				c0.3,0,0.5,0.2,0.5,0.5s-0.2,0.5-0.5,0.5h-3.8v2.2h3.4c0.3,0,0.5,0.2,0.5,0.5c0,0.3-0.2,0.5-0.5,0.5h-3.4v2.2h3.9
				C33.7,30.6,33.9,30.8,33.9,31.1z"/>
			<path class="st1" d="M40,31.7c-0.5,0-1-0.1-1.5-0.3c-0.5-0.2-0.9-0.5-1.2-0.8c-0.3-0.3-0.6-0.7-0.8-1.2c-0.2-0.5-0.3-1-0.3-1.5
				c0-0.5,0.1-1,0.3-1.5c0.2-0.4,0.5-0.8,0.8-1.2c0.3-0.3,0.8-0.6,1.2-0.8c0.5-0.2,1-0.3,1.5-0.3c0.8,0,1.5,0.2,2.1,0.7
				c0.2,0.1,0.3,0.4,0.1,0.6c-0.1,0.2-0.4,0.3-0.6,0.1c-0.5-0.3-1-0.5-1.6-0.5c-0.4,0-0.8,0.1-1.1,0.2c-0.3,0.1-0.7,0.3-0.9,0.6
				c-0.3,0.3-0.5,0.6-0.6,0.9c-0.1,0.3-0.2,0.7-0.2,1.1s0.1,0.7,0.2,1.1c0.1,0.3,0.3,0.6,0.6,0.9c0.5,0.5,1.3,0.8,2,0.8
				c0.4,0,0.8-0.1,1.2-0.2c0.3-0.1,0.6-0.3,0.8-0.6v-1.9c0-0.3,0.2-0.5,0.5-0.5c0.3,0,0.5,0.2,0.5,0.5v2.1c0,0.1,0,0.2-0.1,0.3
				c-0.3,0.4-0.8,0.7-1.2,0.9C41.1,31.6,40.6,31.7,40,31.7z"/>
		</g>
	</g>
	<g>
		<path class="st2" d="M22.9,35.1v1.2c-0.3,0.3-0.7,0.6-1.1,0.6c-0.8,0-1.4-0.6-1.4-1.4c0-0.8,0.6-1.4,1.4-1.4c0.4,0,0.7,0.1,1,0.4
			l-0.2,0.2c-0.2-0.2-0.5-0.3-0.7-0.3c-0.6,0-1,0.5-1,1c0,0.6,0.5,1,1,1c0.3,0,0.6-0.1,0.8-0.4v-0.7h-0.8v-0.3H22.9z"/>
		<path class="st2" d="M27.9,36.8h-0.4l-1-1.4h-0.4v1.4h-0.3v-2.6h0.9c0.2,0,0.3,0.1,0.4,0.2c0.1,0.1,0.2,0.3,0.2,0.4
			c0,0.3-0.2,0.5-0.5,0.6L27.9,36.8z M26.2,35.1h0.6c0.2,0,0.3-0.1,0.3-0.3c0-0.2-0.1-0.3-0.3-0.3h-0.6V35.1z"/>
		<path class="st2" d="M33.1,35.5c0,0.8-0.6,1.4-1.4,1.4s-1.4-0.6-1.4-1.4c0-0.8,0.6-1.4,1.4-1.4S33.1,34.7,33.1,35.5z M32.8,35.5
			c0-0.6-0.5-1-1-1s-1,0.5-1,1c0,0.6,0.5,1,1,1S32.8,36,32.8,35.5z"/>
		<path class="st2" d="M38,34.2v1.7c0,0.6-0.4,1-1,1c-0.5,0-1-0.4-1-1v-1.7h0.3v1.7c0,0.4,0.3,0.7,0.7,0.7c0.4,0,0.7-0.3,0.7-0.7
			v-1.7H38z"/>
		<path class="st2" d="M41,34.2h0.9c0.2,0,0.3,0.1,0.4,0.2c0.1,0.1,0.2,0.3,0.2,0.4c0,0.3-0.3,0.6-0.6,0.6h-0.6v1.4H41V34.2z
			 M42.2,34.8c0-0.2-0.1-0.3-0.3-0.3h-0.6v0.6h0.6C42.1,35.1,42.2,35,42.2,34.8z"/>
	</g>
	<path class="st0" d="M26,3.4l0.9,0l0-1l-1,0l0,0.9l-6.6,7.3c-0.1-0.1-0.3,0-0.4,0.1c-0.1,0.1-0.1,0.3-0.1,0.4l-6.1,6.7l-0.9,0l0,1
		l1,0l0-0.9l6.1-6.7c0.1,0.1,0.3,0,0.4-0.1c0.1-0.1,0.1-0.3,0.1-0.4L26,3.4z M26.8,2.4l0,0.8l-0.8,0l0-0.8L26.8,2.4z M12,18.6l0-0.8
		l0.8,0l0,0.8L12,18.6z"/>
</g>
</svg>
