<?xml version="1.0" encoding="utf-8"?>
<!-- Generator: Adobe Illustrator 23.0.0, SVG Export Plug-In . SVG Version: 6.00 Build 0)  -->
<svg version="1.1" id="Capa_1" xmlns="http://www.w3.org/2000/svg" xmlns:xlink="http://www.w3.org/1999/xlink" x="0px" y="0px"
	 viewBox="0 0 89 75" style="enable-background:new 0 0 89 75;" xml:space="preserve">
<style type="text/css">
	.st0{fill:#FD2A5D;}
	.st1{fill:#081E43;}
	.st2{fill:#666666;}
</style>
<g>
	<path class="st0" d="M48.2,3.8c-2.6-2.3-5.9-3.5-9.4-3.3c-3.5,0.2-6.8,1.7-9.2,4.3c-2.4,2.6-3.6,6-3.4,9.5c0.2,3.6,1.7,6.9,4.5,9.3
		l0.3,0.2l2.2-2.5l-0.3-0.2c-2-1.8-3.2-4.3-3.4-7C29.3,11.5,30.2,9,32,7s4.3-3.1,6.9-3.2C41.5,3.7,44,4.5,46,6.3l0.3,0.2l2.2-2.5
		L48.2,3.8z"/>
	<path class="st1" d="M50.5,16.1l-0.2-0.3c-0.5-0.6-1-1.2-1.6-1.7l-0.3-0.2L48.3,14l-8,9l2.3,2l5.7-6.4c1.1,1.7,1.6,3.7,1.5,5.8
		c-0.2,4.8-3.8,8.7-8.5,9.4c-2.9,0.4-5.8-0.4-8-2.3L33,31.3l-2.2,2.5l0.3,0.2c2.4,2.1,5.5,3.3,8.7,3.3c0.2,0,0.4,0,0.6,0
		c7.3-0.3,13-6.6,12.6-13.8C52.9,20.7,52.1,18.2,50.5,16.1z"/>
	<polygon class="st1" points="60.1,33.8 68.4,23.3 60.1,12.8 63.9,10 74.6,23.3 63.9,36.6 	"/>
	<rect x="74.1" y="31.7" class="st1" width="14.3" height="4.8"/>
	<polygon class="st1" points="15.1,36.6 4.4,23.3 15.1,10 18.9,12.8 10.6,23.3 18.9,33.8 	"/>
	<g>
		<g>
			<path class="st1" d="M6.1,63.7c-4.2,0-5.3-2-5.5-2.2c-0.2-0.5-0.1-1.1,0.4-1.3c0.5-0.2,1-0.1,1.3,0.4c0,0,0.2,0.3,0.7,0.6
				c1,0.5,2.2,0.6,3.1,0.6c1.3,0,2.2-0.3,2.8-0.8c0.4-0.4,0.5-0.9,0.5-1.2c0-0.7-0.2-1.2-0.7-1.7c-0.6-0.6-1.6-1-3.1-1.3
				c-1.1-0.2-2-0.6-2.7-1.1c-0.6-0.4-1.1-0.9-1.4-1.6c-0.6-1-0.6-1.8-0.6-2c0-1,0.5-2,1.3-2.8c0.4-0.4,0.9-0.7,1.5-0.9
				c0.6-0.2,1.2-0.3,1.9-0.3c3.7,0,4.8,1.8,4.9,2c0.2,0.5,0.1,1.1-0.4,1.3c-0.5,0.2-1,0.1-1.3-0.3c0,0-0.2-0.2-0.6-0.5
				c-0.5-0.2-1.3-0.5-2.7-0.5c-1.1,0-1.7,0.4-2,0.7c-0.4,0.4-0.7,0.9-0.7,1.4v0c0,0.1,0,0.6,0.3,1.1c0.2,0.3,0.5,0.6,0.9,0.9
				c0.5,0.3,1.1,0.6,1.9,0.7c1.8,0.4,3.2,1,4,1.8c0.8,0.8,1.2,1.8,1.2,3.1c0,1-0.4,1.9-1.1,2.6C9.3,63.3,7.9,63.7,6.1,63.7z"/>
			<path class="st1" d="M31.8,63.5c-0.4,0-0.8-0.2-0.9-0.6l-3.9-10.8L23,62.9c-0.2,0.4-0.5,0.6-0.9,0.6s-0.8-0.2-0.9-0.6l-4.8-13.2
				c-0.2-0.5,0.1-1,0.6-1.2c0.5-0.2,1,0.1,1.2,0.6l3.9,10.8L26,49c0.1-0.4,0.5-0.6,0.9-0.6c0.4,0,0.8,0.2,0.9,0.6l3.9,10.8L35.7,49
				c0.2-0.5,0.7-0.7,1.2-0.6c0.5,0.2,0.8,0.7,0.6,1.2l-4.8,13.2C32.5,63.3,32.2,63.5,31.8,63.5z"/>
			<path class="st1" d="M53.6,62.5c0,0.5-0.4,1-1,1h-9.1c-0.5,0-1-0.4-1-1V49.4c0-0.5,0.4-1,1-1h9c0.5,0,1,0.4,1,1s-0.4,1-1,1h-8
				v4.6h7.1c0.5,0,1,0.4,1,1c0,0.5-0.4,1-1,1h-7.1v4.7h8.2C53.1,61.5,53.6,62,53.6,62.5z"/>
			<path class="st1" d="M69.6,62.5c0,0.5-0.4,1-1,1h-9.1c-0.5,0-1-0.4-1-1V49.4c0-0.5,0.4-1,1-1h9c0.5,0,1,0.4,1,1s-0.4,1-1,1h-8
				v4.6h7.1c0.5,0,1,0.4,1,1c0,0.5-0.4,1-1,1h-7.1v4.7h8.2C69.2,61.5,69.6,62,69.6,62.5z"/>
			<path class="st1" d="M82.4,63.8c-1.1,0-2.1-0.2-3.1-0.6c-0.9-0.4-1.8-1-2.5-1.7c-0.7-0.7-1.3-1.6-1.7-2.5c-0.4-1-0.6-2-0.6-3
				c0-1.1,0.2-2.1,0.6-3c0.4-0.9,1-1.8,1.7-2.5c0.7-0.7,1.6-1.3,2.5-1.7c1-0.4,2-0.6,3.1-0.6c1.6,0,3.2,0.5,4.5,1.4
				c0.4,0.3,0.5,0.9,0.2,1.3c-0.3,0.4-0.9,0.5-1.3,0.2c-1-0.7-2.1-1.1-3.3-1.1c-0.8,0-1.6,0.2-2.3,0.5c-0.7,0.3-1.4,0.7-1.9,1.3
				c-0.6,0.6-1,1.2-1.3,1.9c-0.3,0.7-0.5,1.5-0.5,2.3s0.2,1.6,0.5,2.3c0.3,0.7,0.7,1.3,1.3,1.9c1.1,1.1,2.6,1.8,4.2,1.8
				c0.8,0,1.7-0.2,2.4-0.5c0.6-0.3,1.2-0.7,1.7-1.1v-4c0-0.5,0.4-1,1-1c0.5,0,1,0.4,1,1v4.4c0,0.2-0.1,0.5-0.2,0.6
				c-0.7,0.8-1.6,1.4-2.5,1.9C84.6,63.6,83.6,63.8,82.4,63.8z"/>
		</g>
	</g>
	<g>
		<path class="st2" d="M46.7,70.9v2.4c-0.5,0.7-1.4,1.2-2.3,1.2c-1.6,0-2.8-1.3-2.8-2.9c0-1.6,1.3-2.8,2.8-2.8c0.8,0,1.5,0.3,2,0.8
			l-0.5,0.4c-0.4-0.4-0.9-0.6-1.5-0.6c-1.2,0-2.2,1-2.2,2.2c0,1.2,1,2.2,2.2,2.2c0.6,0,1.2-0.3,1.6-0.7v-1.5h-1.6v-0.7H46.7z"/>
		<path class="st2" d="M57.2,74.4h-0.8l-2.1-2.9h-0.8v2.9h-0.7V69h1.9c0.3,0,0.7,0.1,0.9,0.4c0.2,0.2,0.4,0.6,0.4,0.9
			c0,0.6-0.4,1.1-1,1.3L57.2,74.4z M53.6,70.9h1.2c0.4,0,0.6-0.3,0.6-0.6c0-0.4-0.3-0.6-0.6-0.6h-1.2V70.9z"/>
		<path class="st2" d="M68,71.7c0,1.6-1.3,2.8-2.9,2.8s-2.8-1.3-2.8-2.8c0-1.6,1.3-2.9,2.8-2.9S68,70.1,68,71.7z M67.3,71.7
			c0-1.2-1-2.2-2.2-2.2c-1.2,0-2.2,1-2.2,2.2c0,1.2,1,2.2,2.2,2.2C66.4,73.8,67.3,72.9,67.3,71.7z"/>
		<path class="st2" d="M78.2,69v3.5c0,1.1-0.9,2.1-2.1,2.1c-1.1,0-2.1-0.9-2.1-2.1V69h0.7v3.5c0,0.8,0.6,1.4,1.4,1.4
			c0.8,0,1.4-0.6,1.4-1.4V69H78.2z"/>
		<path class="st2" d="M84.5,69h1.9c0.3,0,0.7,0.1,0.9,0.4c0.2,0.2,0.4,0.6,0.4,0.9c0,0.7-0.6,1.3-1.3,1.3h-1.2v2.9h-0.7V69z
			 M87,70.3c0-0.3-0.3-0.6-0.6-0.6h-1.2v1.3h1.2C86.8,70.9,87,70.6,87,70.3z"/>
	</g>
	<path class="st0" d="M53.3,4.8l1.8-0.1L55,2.6l-2.2,0.1l0.1,1.8L39.2,19.6c-0.3-0.1-0.6-0.1-0.9,0.2c-0.2,0.2-0.3,0.6-0.1,0.9
		l-12.8,14l-1.8,0.1l0.1,2.2l2.2-0.1L25.8,35l12.8-14c0.3,0.1,0.6,0.1,0.9-0.2c0.2-0.2,0.3-0.6,0.1-0.9L53.3,4.8z M54.8,2.8l0.1,1.7
		l-1.7,0.1l-0.1-1.7L54.8,2.8z M24,36.6l-0.1-1.7l1.7-0.1l0.1,1.7L24,36.6z"/>
</g>
</svg>
