<?xml version="1.0" encoding="utf-8"?>
<!-- Generator: Adobe Illustrator 23.0.0, SVG Export Plug-In . SVG Version: 6.00 Build 0)  -->
<svg version="1.1" id="Capa_1" xmlns="http://www.w3.org/2000/svg" xmlns:xlink="http://www.w3.org/1999/xlink" x="0px" y="0px"
	 viewBox="0 0 40 34" style="enable-background:new 0 0 40 34;" xml:space="preserve">
<style type="text/css">
	.st0{fill:#FD2A5D;}
	.st1{fill:#081E43;}
	.st2{fill:#666666;}
</style>
<g>
	<path class="st0" d="M21.7,2.9c-1.1-1-2.5-1.5-4-1.4c-1.5,0.1-2.9,0.7-3.9,1.8c-1,1.1-1.5,2.6-1.5,4.1c0.1,1.5,0.7,2.9,1.9,4
		l0.1,0.1l0.9-1l-0.1-0.1c-0.9-0.8-1.4-1.8-1.4-3c-0.1-1.1,0.3-2.2,1.1-3.1c0.8-0.8,1.8-1.3,2.9-1.4c1.1-0.1,2.2,0.3,3,1.1l0.1,0.1
		l0.9-1L21.7,2.9z"/>
	<path class="st1" d="M22.7,8.1L22.6,8c-0.2-0.3-0.4-0.5-0.7-0.7l-0.1-0.1l-0.1,0.1l-3.4,3.8l1,0.9l2.4-2.7c0.5,0.7,0.7,1.6,0.7,2.5
		c-0.1,2-1.6,3.7-3.6,4c-1.2,0.2-2.5-0.2-3.4-1l-0.1-0.1l-0.9,1l0.1,0.1c1,0.9,2.3,1.4,3.7,1.4c0.1,0,0.2,0,0.3,0
		c3.1-0.1,5.5-2.8,5.4-5.9C23.7,10.1,23.3,9,22.7,8.1z"/>
	<polygon class="st1" points="26.7,15.6 30.3,11.2 26.7,6.7 28.4,5.5 32.9,11.2 28.4,16.9 	"/>
	<rect x="32.7" y="14.8" class="st1" width="6.1" height="2"/>
	<polygon class="st1" points="7.6,16.9 3,11.2 7.6,5.5 9.2,6.7 5.7,11.2 9.2,15.6 	"/>
	<g>
		<g>
			<path class="st1" d="M3.8,28.4c-1.8,0-2.3-0.8-2.3-0.9c-0.1-0.2,0-0.4,0.2-0.6c0.2-0.1,0.4,0,0.5,0.2c0,0,0.1,0.1,0.3,0.2
				c0.4,0.2,0.9,0.3,1.3,0.3c0.5,0,0.9-0.1,1.2-0.3c0.2-0.2,0.2-0.4,0.2-0.5c0-0.3-0.1-0.5-0.3-0.7c-0.3-0.3-0.7-0.4-1.3-0.6
				c-0.4-0.1-0.8-0.3-1.1-0.5c-0.3-0.2-0.5-0.4-0.6-0.7c-0.2-0.4-0.2-0.8-0.2-0.9c0-0.4,0.2-0.9,0.6-1.2c0.2-0.2,0.4-0.3,0.6-0.4
				c0.2-0.1,0.5-0.1,0.8-0.1c1.6,0,2.1,0.7,2.1,0.8c0.1,0.2,0,0.4-0.2,0.6c-0.2,0.1-0.4,0-0.5-0.1c0,0-0.1-0.1-0.3-0.2
				c-0.2-0.1-0.5-0.2-1.1-0.2c-0.4,0-0.7,0.2-0.9,0.3c-0.2,0.2-0.3,0.4-0.3,0.6v0c0,0,0,0.2,0.1,0.5c0.1,0.1,0.2,0.3,0.4,0.4
				c0.2,0.1,0.5,0.2,0.8,0.3c0.8,0.2,1.3,0.4,1.7,0.8C5.8,25.8,6,26.2,6,26.7c0,0.4-0.2,0.8-0.5,1.1C5.1,28.2,4.5,28.4,3.8,28.4z"/>
			<path class="st1" d="M14.7,28.3c-0.2,0-0.3-0.1-0.4-0.3l-1.7-4.6L11,28c-0.1,0.2-0.2,0.3-0.4,0.3c-0.2,0-0.3-0.1-0.4-0.3
				l-2.1-5.6c-0.1-0.2,0-0.4,0.2-0.5c0.2-0.1,0.4,0,0.5,0.2l1.7,4.6l1.7-4.6c0.1-0.2,0.2-0.3,0.4-0.3c0.2,0,0.3,0.1,0.4,0.3l1.7,4.6
				l1.7-4.6c0.1-0.2,0.3-0.3,0.5-0.2c0.2,0.1,0.3,0.3,0.2,0.5L15.1,28C15,28.2,14.9,28.3,14.7,28.3z"/>
			<path class="st1" d="M24,27.9c0,0.2-0.2,0.4-0.4,0.4h-3.9c-0.2,0-0.4-0.2-0.4-0.4v-5.6c0-0.2,0.2-0.4,0.4-0.4h3.8
				c0.2,0,0.4,0.2,0.4,0.4c0,0.2-0.2,0.4-0.4,0.4h-3.4v2h3c0.2,0,0.4,0.2,0.4,0.4c0,0.2-0.2,0.4-0.4,0.4h-3v2h3.5
				C23.8,27.5,24,27.6,24,27.9z"/>
			<path class="st1" d="M30.8,27.9c0,0.2-0.2,0.4-0.4,0.4h-3.9c-0.2,0-0.4-0.2-0.4-0.4v-5.6c0-0.2,0.2-0.4,0.4-0.4h3.8
				c0.2,0,0.4,0.2,0.4,0.4c0,0.2-0.2,0.4-0.4,0.4h-3.4v2h3c0.2,0,0.4,0.2,0.4,0.4c0,0.2-0.2,0.4-0.4,0.4h-3v2h3.5
				C30.6,27.5,30.8,27.6,30.8,27.9z"/>
			<path class="st1" d="M36.2,28.4c-0.5,0-0.9-0.1-1.3-0.3c-0.4-0.2-0.8-0.4-1.1-0.7c-0.3-0.3-0.5-0.7-0.7-1
				c-0.2-0.4-0.3-0.8-0.3-1.3c0-0.4,0.1-0.9,0.3-1.3c0.2-0.4,0.4-0.7,0.7-1c0.3-0.3,0.7-0.5,1.1-0.7c0.4-0.2,0.9-0.3,1.3-0.3
				c0.7,0,1.3,0.2,1.9,0.6c0.2,0.1,0.2,0.4,0.1,0.6c-0.1,0.2-0.4,0.2-0.6,0.1c-0.4-0.3-0.9-0.5-1.4-0.5c-0.3,0-0.7,0.1-1,0.2
				c-0.3,0.1-0.6,0.3-0.8,0.5c-0.2,0.2-0.4,0.5-0.6,0.8c-0.1,0.3-0.2,0.6-0.2,1c0,0.3,0.1,0.7,0.2,1c0.1,0.3,0.3,0.6,0.5,0.8
				c0.5,0.5,1.1,0.7,1.8,0.7c0.4,0,0.7-0.1,1-0.2c0.3-0.1,0.5-0.3,0.7-0.5v-1.7c0-0.2,0.2-0.4,0.4-0.4c0.2,0,0.4,0.2,0.4,0.4v1.9
				c0,0.1,0,0.2-0.1,0.3c-0.3,0.3-0.7,0.6-1.1,0.8C37.2,28.3,36.7,28.4,36.2,28.4z"/>
		</g>
	</g>
	<g>
		<path class="st2" d="M21,31.4v1c-0.2,0.3-0.6,0.5-1,0.5c-0.7,0-1.2-0.5-1.2-1.2c0-0.7,0.5-1.2,1.2-1.2c0.3,0,0.6,0.1,0.9,0.4
			l-0.2,0.2c-0.2-0.2-0.4-0.3-0.6-0.3c-0.5,0-0.9,0.4-0.9,0.9c0,0.5,0.4,0.9,0.9,0.9c0.3,0,0.5-0.1,0.7-0.3v-0.6h-0.7v-0.3H21z"/>
		<path class="st2" d="M25.5,32.9h-0.3l-0.9-1.2H24v1.2h-0.3v-2.3h0.8c0.1,0,0.3,0.1,0.4,0.2C25,30.9,25,31,25,31.2
			c0,0.3-0.2,0.5-0.4,0.5L25.5,32.9z M24,31.4h0.5c0.1,0,0.3-0.1,0.3-0.3c0-0.1-0.1-0.3-0.3-0.3H24V31.4z"/>
		<path class="st2" d="M30.1,31.8c0,0.7-0.5,1.2-1.2,1.2c-0.7,0-1.2-0.5-1.2-1.2c0-0.7,0.5-1.2,1.2-1.2
			C29.6,30.6,30.1,31.1,30.1,31.8z M29.8,31.8c0-0.5-0.4-0.9-0.9-0.9c-0.5,0-0.9,0.4-0.9,0.9c0,0.5,0.4,0.9,0.9,0.9
			C29.4,32.7,29.8,32.3,29.8,31.8z"/>
		<path class="st2" d="M34.4,30.6v1.5c0,0.5-0.4,0.9-0.9,0.9c-0.5,0-0.9-0.4-0.9-0.9v-1.5h0.3v1.5c0,0.3,0.3,0.6,0.6,0.6
			c0.3,0,0.6-0.3,0.6-0.6v-1.5H34.4z"/>
		<path class="st2" d="M37.1,30.6h0.8c0.1,0,0.3,0.1,0.4,0.2c0.1,0.1,0.2,0.2,0.2,0.4c0,0.3-0.3,0.5-0.6,0.5h-0.5v1.2h-0.3V30.6z
			 M38.2,31.2c0-0.1-0.1-0.3-0.3-0.3h-0.5v0.5h0.5C38.1,31.4,38.2,31.3,38.2,31.2z"/>
	</g>
	<path class="st0" d="M23.9,3.3l0.8,0l0-0.9l-0.9,0l0,0.8l-5.9,6.4c-0.1-0.1-0.3,0-0.4,0.1s-0.1,0.3,0,0.4L12,16l-0.8,0l0,0.9l0.9,0
		l0-0.8l5.4-5.9c0.1,0.1,0.3,0,0.4-0.1c0.1-0.1,0.1-0.3,0-0.4L23.9,3.3z M24.5,2.5l0,0.7l-0.7,0l0-0.7L24.5,2.5z M11.4,16.9l0-0.7
		l0.7,0l0,0.7L11.4,16.9z"/>
</g>
</svg>
