<?xml version="1.0" encoding="utf-8"?>
<!-- Generator: Adobe Illustrator 23.0.0, SVG Export Plug-In . SVG Version: 6.00 Build 0)  -->
<svg version="1.1" id="Capa_1" xmlns="http://www.w3.org/2000/svg" xmlns:xlink="http://www.w3.org/1999/xlink" x="0px" y="0px"
	 viewBox="0 0 71.5 60.3" style="enable-background:new 0 0 71.5 60.3;" xml:space="preserve">
<style type="text/css">
	.st0{fill:#FD2A5D;}
	.st1{fill:#081E43;}
	.st2{fill:#666666;}
</style>
<g>
	<path class="st0" d="M38.7,3.4c-2.1-1.8-4.7-2.8-7.5-2.7c-2.8,0.1-5.4,1.4-7.3,3.5c-1.9,2.1-2.9,4.8-2.8,7.6
		c0.1,2.9,1.4,5.5,3.6,7.4l0.2,0.2l1.7-2l-0.2-0.2c-1.6-1.4-2.6-3.4-2.7-5.6c-0.1-2.1,0.6-4.2,2.1-5.7s3.4-2.5,5.5-2.6
		c2.1-0.1,4.1,0.6,5.7,2l0.2,0.2l1.7-2L38.7,3.4z"/>
	<path class="st1" d="M40.6,13.3L40.4,13c-0.4-0.5-0.8-0.9-1.3-1.3l-0.2-0.2l-0.1,0.1l-6.4,7.2l1.8,1.6l4.5-5.1
		c0.9,1.4,1.3,3,1.2,4.6c-0.2,3.8-3,7-6.8,7.5c-2.3,0.3-4.6-0.3-6.4-1.9l-0.2-0.2l-1.7,2l0.2,0.2c1.9,1.7,4.4,2.6,7,2.6
		c0.2,0,0.3,0,0.5,0c5.8-0.3,10.4-5.2,10.1-11.1C42.5,17,41.8,15,40.6,13.3z"/>
	<polygon class="st1" points="48.2,27.4 54.9,19 48.2,10.6 51.3,8.3 59.9,19 51.3,29.7 	"/>
	<rect x="59.4" y="25.7" class="st1" width="11.4" height="3.8"/>
	<polygon class="st1" points="12.2,29.7 3.6,19 12.2,8.3 15.3,10.6 8.6,19 15.3,27.4 	"/>
	<g>
		<g>
			<path class="st1" d="M5.1,51.3c-3.3,0-4.3-1.6-4.4-1.7c-0.2-0.4-0.1-0.8,0.3-1c0.4-0.2,0.8-0.1,1,0.3c0,0,0.2,0.2,0.6,0.5
				c0.8,0.4,1.8,0.5,2.4,0.5c1,0,1.8-0.2,2.2-0.6c0.3-0.3,0.4-0.7,0.4-0.9c0-0.6-0.2-1-0.5-1.3c-0.5-0.5-1.3-0.8-2.5-1.1
				c-0.8-0.2-1.6-0.5-2.2-0.9c-0.5-0.3-0.9-0.8-1.1-1.2c-0.4-0.8-0.4-1.5-0.4-1.6c0-0.8,0.4-1.6,1-2.2c0.3-0.3,0.7-0.5,1.2-0.7
				C3.6,39,4.1,39,4.6,39c3,0,3.9,1.4,4,1.6c0.2,0.4,0.1,0.8-0.3,1c-0.4,0.2-0.8,0.1-1-0.3c0,0-0.2-0.2-0.5-0.4
				c-0.4-0.2-1-0.4-2.1-0.4c-0.8,0-1.3,0.3-1.6,0.6c-0.3,0.3-0.5,0.7-0.5,1.1v0c0,0.1,0,0.4,0.3,0.9c0.2,0.3,0.4,0.5,0.7,0.7
				C3.8,44,4.4,44.2,5,44.3c1.5,0.3,2.5,0.8,3.2,1.5c0.7,0.6,1,1.5,1,2.4c0,0.8-0.3,1.5-0.9,2.1C7.6,51,6.5,51.3,5.1,51.3z"/>
			<path class="st1" d="M25.6,51.2c-0.3,0-0.6-0.2-0.7-0.5l-3.2-8.6l-3.1,8.6c-0.1,0.3-0.4,0.5-0.7,0.5c-0.3,0-0.6-0.2-0.7-0.5
				l-3.9-10.6c-0.2-0.4,0.1-0.8,0.5-1c0.4-0.1,0.8,0.1,1,0.5l3.2,8.6l3.1-8.6c0.1-0.3,0.4-0.5,0.7-0.5c0.3,0,0.6,0.2,0.7,0.5
				l3.2,8.6l3.1-8.6c0.2-0.4,0.6-0.6,1-0.5c0.4,0.2,0.6,0.6,0.5,1l-3.9,10.6C26.2,51,25.9,51.2,25.6,51.2z"/>
			<path class="st1" d="M43,50.4c0,0.4-0.3,0.8-0.8,0.8h-7.3c-0.4,0-0.8-0.3-0.8-0.8V39.9c0-0.4,0.4-0.8,0.8-0.8h7.2
				c0.4,0,0.8,0.3,0.8,0.8s-0.3,0.8-0.8,0.8h-6.4v3.7h5.7c0.4,0,0.8,0.4,0.8,0.8c0,0.4-0.3,0.8-0.8,0.8h-5.7v3.7h6.6
				C42.7,49.6,43,49.9,43,50.4z"/>
			<path class="st1" d="M55.8,50.4c0,0.4-0.3,0.8-0.8,0.8h-7.3c-0.4,0-0.8-0.3-0.8-0.8V39.9c0-0.4,0.4-0.8,0.8-0.8h7.2
				c0.4,0,0.8,0.3,0.8,0.8s-0.3,0.8-0.8,0.8h-6.4v3.7h5.7c0.4,0,0.8,0.4,0.8,0.8c0,0.4-0.3,0.8-0.8,0.8h-5.7v3.7h6.6
				C55.5,49.6,55.8,49.9,55.8,50.4z"/>
			<path class="st1" d="M66.1,51.4c-0.9,0-1.7-0.2-2.4-0.5c-0.8-0.3-1.4-0.8-2-1.3c-0.6-0.6-1-1.2-1.3-2c-0.3-0.8-0.5-1.6-0.5-2.4
				c0-0.8,0.2-1.7,0.5-2.4c0.3-0.7,0.8-1.4,1.4-2c0.6-0.6,1.3-1,2-1.3c0.8-0.3,1.6-0.5,2.4-0.5c1.3,0,2.5,0.4,3.6,1.1
				c0.4,0.2,0.4,0.7,0.2,1.1c-0.2,0.3-0.7,0.4-1.1,0.2c-0.8-0.6-1.7-0.9-2.7-0.9c-0.6,0-1.3,0.1-1.9,0.4c-0.6,0.2-1.1,0.6-1.5,1
				c-0.4,0.4-0.8,0.9-1,1.5c-0.2,0.6-0.4,1.2-0.4,1.8c0,0.6,0.1,1.2,0.4,1.8c0.2,0.6,0.6,1.1,1,1.5c0.9,0.9,2.1,1.4,3.4,1.4
				c0.7,0,1.3-0.1,1.9-0.4c0.5-0.2,0.9-0.5,1.3-0.9v-3.2c0-0.4,0.3-0.8,0.8-0.8c0.4,0,0.8,0.3,0.8,0.8v3.5c0,0.2-0.1,0.4-0.2,0.5
				c-0.6,0.6-1.3,1.1-2,1.5C67.9,51.2,67,51.4,66.1,51.4z"/>
		</g>
	</g>
	<g>
		<path class="st2" d="M37.5,57.1v1.9c-0.4,0.6-1.1,0.9-1.8,0.9c-1.3,0-2.3-1-2.3-2.3c0-1.3,1-2.3,2.3-2.3c0.6,0,1.2,0.2,1.6,0.7
			l-0.4,0.4c-0.3-0.3-0.8-0.5-1.2-0.5c-1,0-1.7,0.8-1.7,1.7c0,1,0.8,1.7,1.7,1.7c0.5,0,1-0.2,1.3-0.6v-1.2h-1.3v-0.5H37.5z"/>
		<path class="st2" d="M45.9,59.9h-0.6l-1.7-2.3H43v2.3h-0.5v-4.4H44c0.3,0,0.5,0.1,0.7,0.3c0.2,0.2,0.3,0.5,0.3,0.7
			c0,0.5-0.3,0.9-0.8,1L45.9,59.9z M43,57.1h1c0.3,0,0.5-0.2,0.5-0.5c0-0.3-0.2-0.5-0.5-0.5h-1V57.1z"/>
		<path class="st2" d="M54.6,57.7c0,1.3-1,2.3-2.3,2.3c-1.3,0-2.3-1-2.3-2.3c0-1.3,1-2.3,2.3-2.3C53.6,55.4,54.6,56.5,54.6,57.7z
			 M54,57.7c0-1-0.8-1.7-1.7-1.7c-1,0-1.7,0.8-1.7,1.7c0,0.9,0.8,1.7,1.7,1.7C53.3,59.4,54,58.7,54,57.7z"/>
		<path class="st2" d="M62.7,55.6v2.8c0,0.9-0.7,1.7-1.7,1.7c-0.9,0-1.7-0.7-1.7-1.7v-2.8h0.5v2.8c0,0.6,0.5,1.1,1.1,1.1
			c0.6,0,1.1-0.5,1.1-1.1v-2.8H62.7z"/>
		<path class="st2" d="M67.8,55.6h1.5c0.3,0,0.5,0.1,0.7,0.3c0.2,0.2,0.3,0.5,0.3,0.7c0,0.6-0.5,1-1,1h-1v2.3h-0.5V55.6z M69.8,56.6
			c0-0.3-0.2-0.5-0.5-0.5h-1v1h1C69.6,57.1,69.8,56.9,69.8,56.6z"/>
	</g>
	<path class="st0" d="M42.8,4.2l1.4-0.1l-0.1-1.7l-1.7,0.1L42.5,4L31.5,16c-0.2-0.1-0.5,0-0.7,0.1c-0.2,0.2-0.2,0.5-0.1,0.7
		L20.5,28.1L19,28.1l0.1,1.7l1.7-0.1l-0.1-1.4L31,17.2c0.2,0.1,0.5,0,0.7-0.1c0.2-0.2,0.2-0.5,0.1-0.7L42.8,4.2z M44,2.6L44,4
		L42.7,4l-0.1-1.3L44,2.6z M19.3,29.7l-0.1-1.3l1.3-0.1l0.1,1.3L19.3,29.7z"/>
</g>
</svg>
